<svg id="card" width="225" height="217" viewBox="0 0 225 217" xmlns="http://www.w3.org/2000/svg" xmlns:xlink="http://www.w3.org/1999/xlink">
    <path id="Path" fill="#ffffff" fill-opacity="0.269985" fill-rule="evenodd" stroke="none" d="M 198 110.5 C 198 62.727371 159.272629 24 111.5 24 C 63.727367 24 25 62.727371 25 110.5 C 25 158.272629 63.727367 197 111.5 197 C 159.272629 197 198 158.272629 198 110.5 Z"/>
    <path id="Shape" fill="#ffffff" fill-rule="evenodd" stroke="none" d="M 71 144 C 66.029472 144 62 139.97052 62 135 L 62 86 C 62 81.029434 66.029472 77 71 77 L 154 77 C 158.970566 77 163 81.029434 163 86 L 163 135 C 163 139.97052 158.970566 144 154 144 L 71 144 Z M 78 130 L 85 130 C 86.656853 130 88 128.65686 88 127 C 88 125.343147 86.656853 124 85 124 L 78 124 C 76.343147 124 75 125.343147 75 127 C 75 128.65686 76.343147 130 78 130 Z M 98 130 L 105 130 C 106.656853 130 108 128.65686 108 127 C 108 125.343147 106.656853 124 105 124 L 98 124 C 96.343147 124 95 125.343147 95 127 C 95 128.65686 96.343147 130 98 130 Z M 120 130 L 127 130 C 128.65686 130 130 128.65686 130 127 C 130 125.343147 128.65686 124 127 124 L 120 124 C 118.343147 124 117 125.343147 117 127 C 117 128.65686 118.343147 130 120 130 Z M 141 130 L 148 130 C 149.65686 130 151 128.65686 151 127 C 151 125.343147 149.65686 124 148 124 L 141 124 C 139.34314 124 138 125.343147 138 127 C 138 128.65686 139.34314 130 141 130 Z M 130.5 115 L 139.5 115 C 146.403564 115 152 109.403549 152 102.5 C 152 95.596451 146.403564 90 139.5 90 L 130.5 90 C 123.596451 90 118 95.596451 118 102.5 C 118 109.403549 123.596451 115 130.5 115 Z"/>
    <path id="path1" fill="#ffffff" fill-rule="evenodd" stroke="none" d="M 125 103 C 125 106.313705 127.686295 109 131 109 L 140 109 C 143.313705 109 146 106.313705 146 103 C 146 99.686295 143.313705 97 140 97 L 131 97 C 127.686295 97 125 99.686295 125 103 Z"/>
</svg>