<svg xmlns="http://www.w3.org/2000/svg" xmlns:xlink="http://www.w3.org/1999/xlink" width="135" height="142"
    viewBox="0 0 135 142">
    <path id="Path" fill="none" stroke="#f11b2d" stroke-width="9" stroke-linecap="round" stroke-linejoin="round"
        d="M 6 112 C 6.253883 108.329971 16.847281 101.910995 18 97 C 19.152719 92.089005 16 42 50 42 C 88 42 84.91082 94.019455 87 99 C 89.191048 104.223389 98.889847 108.920242 99 113 C 99.110153 117.079758 99 117 52 117 C 5 117 5.746117 115.670029 6 112 Z" />
    <path id="path1" fill="none" stroke="#f11b2d" stroke-width="9" stroke-linecap="round" stroke-linejoin="round"
        d="M 36 118 C 36 118 36.004536 136.05719 52 136 C 67.995468 135.94281 70 118 70 118 Z" />
    <path id="path2" fill="none" stroke="#f11b2d" stroke-width="9" stroke-linecap="round" stroke-linejoin="round"
        d="M 42 42 C 42 42 42.270393 32.258682 52 32 Z" />
    <path id="Rounded-Rectangle" fill="#f11b2d" fill-rule="evenodd" stroke="#f11b2d" stroke-width="9"
        stroke-linecap="round" stroke-linejoin="round"
        d="M 50 41.5 C 50 61.10611 65.89389 77 85.5 77 L 93.5 77 C 113.10611 77 129 61.10611 129 41.5 C 129 21.89389 113.10611 6 93.5 6 L 85.5 6 C 65.89389 6 50 21.89389 50 41.5 Z" />
    <path id="path3" fill="none" stroke="#f1fdf1" stroke-width="8" stroke-linecap="round" stroke-linejoin="round"
        d="M 78 22 L 98 22 L 84 56" />
</svg>