<svg xmlns="http://www.w3.org/2000/svg" xmlns:xlink="http://www.w3.org/1999/xlink" width="151" height="142"
    viewBox="0 0 151 142">
    <path id="Path" fill="none" stroke="#ff1c28" stroke-width="11" stroke-linejoin="round"
        d="M 64 124 L 29 124 C 29 124 24.253649 123.805298 21 120.00016 C 17.964384 116.450012 17 112.000488 17 112.000488 L 17 51.002945 L 65 14 C 65 14 68.636887 12.082886 73 12 C 77.363113 11.91713 81 15 81 15 L 125 46.003151 C 125 46.003151 128.314514 49.000916 128 56" />
    <path id="path1" fill="none" stroke="#ff1c28" stroke-width="10" stroke-linejoin="round"
        d="M 107 130 C 107 130 107.151535 123.418388 116 120 C 125.470032 116.341476 132 121 132 121 C 132 121 124.181068 116.641174 129 105 C 133.851654 93.279785 141 95 141 95 C 141 95 131.599243 95.536774 128 86 C 124.400749 76.463226 132 71 132 71 C 132 71 125.040771 78.627838 115 74 C 108.012505 70.779434 107 63 107 63 C 107 63 107.027908 71.500542 98 75 C 88.411072 78.716927 81 72 81 72 C 81 72 89.352806 77.592239 85 87 C 80.647194 96.407761 72 97 72 97 C 72 97 80.664574 96.342293 85 106 C 89.335426 115.657707 81 122 81 122 C 81 122 89.238594 115.56955 97 119 C 105.806053 122.892181 107 130 107 130 Z" />
    <path id="Circular-Outline" fill="none" stroke="#ff1c28" stroke-width="5" stroke-linejoin="round"
        d="M 107 122 C 93.192902 122 82 110.807106 82 97 C 82 83.192894 93.192902 72 107 72 C 120.807098 72 132 83.192894 132 97 C 132 110.807106 120.807098 122 107 122 Z M 107 118.124031 C 118.666466 118.124031 128.124039 108.666466 128.124039 97 C 128.124039 85.333534 118.666466 75.875969 107 75.875969 C 95.333534 75.875969 85.875969 85.333534 85.875969 97 C 85.875969 108.666466 95.333534 118.124031 107 118.124031 Z" />
</svg>