<svg id="identify" width="25" height="25" viewBox="0 0 0 0" xmlns="http://www.w3.org/2000/svg" xmlns:xlink="http://www.w3.org/1999/xlink">
    <path id="Oval" fill="#ffffff" fill-opacity="0.384175" fill-rule="evenodd" stroke="none" d="M 136 72 C 136 37.758347 108.241653 10 74 10 C 39.758347 10 12 37.758347 12 72 C 12 106.241653 39.758347 134 74 134 C 108.241653 134 136 106.241653 136 72 Z"/>
    <path id="Shape" fill="#ffffff" fill-rule="evenodd" stroke="none" d="M 91 51 C 91 41.61116 83.38884 34 74 34 C 64.61116 34 57 41.61116 57 51 C 57 60.38884 64.61116 68 74 68 C 83.38884 68 91 60.38884 91 51 Z"/>
    <path id="Path" fill="#ffffff" fill-rule="evenodd" stroke="none" d="M 104.001938 107.818253 C 103.312408 90.711319 97.267807 72.107147 74 72 C 51.369385 71.895782 43.703812 90.182938 43.779114 107.303589 C 43.790489 109.89003 56.913292 115.919106 74.034119 115.919106 C 91.154938 115.919106 104.044586 108.876328 104.001938 107.818253 Z"/>
</svg>