<svg id="settings" width="225" height="217" viewBox="0 0 225 217" xmlns="http://www.w3.org/2000/svg">
    <path id="Shape" fill="#ffffff" fill-rule="evenodd" stroke="none" d="M 206.209305 127.472351 C 200.21051 128.884796 191.850998 130.852737 185.18222 132.421021 C 184.054031 135.795975 182.689896 139.087357 181.099899 142.270828 C 184.707001 148.094421 189.22554 155.399002 192.474304 160.642151 C 194.951782 164.648163 195.341324 168.784271 190.620102 173.50621 L 178.505539 185.623917 C 173.784424 190.345856 169.647522 189.952423 165.643188 187.472656 C 160.399963 184.22702 153.092285 179.705261 147.272659 176.098206 C 144.088287 177.689911 140.794922 179.053589 137.417404 180.17897 C 135.851471 186.84549 133.88829 195.207275 132.470337 201.209274 C 131.395203 205.795654 128.746353 209 122.069763 209 L 104.930237 209 C 98.253647 209 95.60479 205.797211 94.529671 201.209274 C 93.11171 195.210403 91.148537 186.84549 89.582596 180.17897 C 86.20507 179.053589 82.911713 177.689911 79.727348 176.098206 C 73.907715 179.702942 66.600037 184.224686 61.356819 187.472656 C 57.352486 189.952423 53.215576 190.345856 48.494461 185.623917 L 36.37989 173.50621 C 31.658684 168.784271 32.048218 164.648163 34.5257 160.642151 C 37.77446 155.399002 42.293007 148.094421 45.900101 142.270828 C 44.310104 139.087357 42.945969 135.795975 41.81778 132.421021 C 35.148994 130.852737 26.789543 128.884796 20.790699 127.472351 C 16.201965 126.393326 13 123.746841 13 117.069412 L 13 99.930588 C 13 93.253159 16.201965 90.606628 20.790699 89.527603 C 26.789543 88.115158 35.148994 86.147217 41.81778 84.578934 C 42.945969 81.204025 44.310104 77.912643 45.900101 74.729126 C 42.293007 68.905563 37.77446 61.600998 34.5257 56.357803 C 32.048218 52.351837 31.658684 48.215729 36.37989 43.49379 L 48.494461 31.376083 C 53.215576 26.654099 57.352486 27.047531 61.356819 29.527359 C 66.600037 32.772934 73.907715 37.294678 79.727348 40.901794 C 82.911713 39.310074 86.20507 37.946365 89.582596 36.82103 C 91.148537 30.154495 93.11171 21.792694 94.529671 15.790741 C 95.60479 11.204315 98.253647 8 104.930237 8 L 122.069763 8 C 128.746353 8 131.395203 11.202789 132.470337 15.790741 C 133.88829 21.789597 135.851471 30.154495 137.417404 36.82103 C 140.794922 37.946365 144.088287 39.310074 147.272659 40.901794 C 153.092285 37.297012 160.399963 32.775314 165.643188 29.527359 C 169.647522 27.047531 173.784424 26.654099 178.505539 31.376083 L 190.620102 43.49379 C 195.341324 48.215729 194.951782 52.351837 192.474304 56.357803 C 189.22554 61.600998 184.707001 68.905563 181.099899 74.729126 C 182.689896 77.912643 184.054031 81.204025 185.18222 84.578934 C 191.850998 86.147217 200.21051 88.115158 206.209305 89.527603 C 210.798035 90.606628 214 93.253159 214 99.930588 L 214 117.070175 C 214 123.746841 210.798035 126.393326 206.209305 127.472351 Z M 113.5 69.546738 C 91.986565 69.546738 74.546509 86.986862 74.546509 108.500381 C 74.546509 130.013901 91.986565 147.45401 113.5 147.45401 C 135.013428 147.45401 152.453491 130.013901 152.453491 108.500381 C 152.453491 86.986862 135.013428 69.546738 113.5 69.546738 Z"/>
</svg>