<svg id="settings25" width="47" height="47" viewBox="0 0 47 47" xmlns="http://www.w3.org/2000/svg">
    <path id="Shape" fill="#ffffff" fill-rule="evenodd" stroke="none" d="M 44.755814 27.747538 C 43.4128 28.063755 41.541267 28.504341 40.048256 28.855457 C 39.795677 29.611042 39.490276 30.347916 39.134308 31.060637 C 39.941864 32.364422 40.95348 33.999771 41.680813 35.173607 C 42.235474 36.070488 42.322685 36.996483 41.265694 38.053623 L 38.553478 40.766541 C 37.49651 41.8237 36.570343 41.735622 35.673851 41.18045 C 34.499989 40.453812 32.863945 39.441471 31.561045 38.633926 C 30.848125 38.990276 30.110802 39.295578 29.354641 39.547523 C 29.004063 41.040031 28.564545 42.912071 28.247091 44.255798 C 28.006388 45.282608 27.413363 46 25.918604 46 L 22.081396 46 C 20.586637 46 19.99361 45.282951 19.752911 44.255798 C 19.435457 42.912773 18.995941 41.040031 18.645359 39.547523 C 17.889194 39.295578 17.151876 38.990276 16.438957 38.633926 C 15.136055 39.440956 13.500008 40.453293 12.326153 41.18045 C 11.429661 41.735622 10.503487 41.8237 9.446521 40.766541 L 6.734303 38.053623 C 5.677318 36.996483 5.764525 36.070488 6.319187 35.173607 C 7.046521 33.999771 8.058136 32.364422 8.865694 31.060637 C 8.509726 30.347916 8.20432 29.611042 7.951742 28.855457 C 6.458731 28.504341 4.587211 28.063755 3.244187 27.747538 C 2.216858 27.505976 1.5 26.913469 1.5 25.418522 L 1.5 21.581478 C 1.5 20.086531 2.216858 19.494024 3.244187 19.252445 C 4.587211 18.936228 6.458731 18.495642 7.951742 18.144543 C 8.20432 17.388958 8.509726 16.652084 8.865694 15.939363 C 8.058136 14.635578 7.046521 13.000229 6.319187 11.826374 C 5.764525 10.929512 5.677318 10.003521 6.734303 8.946377 L 9.446521 6.233459 C 10.503487 5.1763 11.429661 5.264378 12.326153 5.819565 C 13.500008 6.546173 15.136055 7.558514 16.438957 8.366077 C 17.151876 8.009724 17.889194 7.704407 18.645359 7.452477 C 18.995941 5.959969 19.435457 4.087914 19.752911 2.744202 C 19.99361 1.717392 20.586637 1 22.081396 1 L 25.918604 1 C 27.413363 1 28.006388 1.717049 28.247091 2.744202 C 28.564545 4.087227 29.004063 5.959969 29.354641 7.452477 C 30.110802 7.704407 30.848125 8.009724 31.561045 8.366077 C 32.863945 7.559029 34.499989 6.546707 35.673851 5.819565 C 36.570343 5.264378 37.49651 5.1763 38.553478 6.233459 L 41.265694 8.946377 C 42.322685 10.003521 42.235474 10.929512 41.680813 11.826374 C 40.95348 13.000229 39.941864 14.635578 39.134308 15.939363 C 39.490276 16.652084 39.795677 17.388958 40.048256 18.144543 C 41.541267 18.495642 43.4128 18.936228 44.755814 19.252445 C 45.783142 19.494024 46.5 20.086531 46.5 21.581478 L 46.5 25.418694 C 46.5 26.913469 45.783142 27.505976 44.755814 27.747538 Z M 24 14.779121 C 19.183559 14.779121 15.27907 18.683628 15.27907 23.500086 C 15.27907 28.316544 19.183559 32.22105 24 32.22105 C 28.816441 32.22105 32.720932 28.316544 32.720932 23.500086 C 32.720932 18.683628 28.816441 14.779121 24 14.779121 Z"/>
</svg>