<svg width="202" height="200" viewBox="0 0 202 200" xmlns="http://www.w3.org/2000/svg" xmlns:xlink="http://www.w3.org/1999/xlink">
    <path id="Path" fill="#dee4e4" fill-rule="evenodd" stroke="none" d="M 193 100.5 C 193 49.413666 151.586334 8 100.5 8 C 49.413662 8 8 49.413666 8 100.5 C 8 151.586334 49.413662 193 100.5 193 C 151.586334 193 193 151.586334 193 100.5 Z"/>
    <path id="path1" fill="#959bb1" fill-rule="evenodd" stroke="#959bb1" stroke-width="7" stroke-linecap="round" stroke-linejoin="round" d="M 71 88 C 71 99.005051 71.482788 105.346786 71 114 C 70.614265 120.913712 37.000179 136.892914 69 137 C 97.300354 137.094696 83.969788 152.078003 100 152 C 117.157639 151.916519 102.193542 137.177856 130 137 C 162.999329 136.78894 130 122 130 113 C 130 102.645187 130 101 130 87 C 130 66 111 58 104 58 C 101 58 104 45 101 45 C 98 45 101.333328 58.005249 97 58 C 91.304817 57.993103 71 65 71 88 Z"/>
</svg>